<svg width="182" height="46" viewBox="0 0 182 46" fill="none" xmlns="http://www.w3.org/2000/svg">
<path d="M55.72 37V32.16H69.84V37H55.72ZM55.72 13.84V9H69.84V13.84H55.72ZM55.72 24.52V19.76H69.04V24.52H55.72ZM52.04 9H57.56V37H52.04V9Z" fill="#FE5D37"/>
<path d="M75.4775 9H81.3175V37H75.4775V9ZM84.9975 37H79.1575V31.8H84.7975C86.0242 31.8 87.1842 31.64 88.2775 31.32C89.3708 30.9733 90.3308 30.44 91.1575 29.72C91.9842 29 92.6242 28.0933 93.0775 27C93.5575 25.88 93.7975 24.5467 93.7975 23C93.7975 21.4533 93.5575 20.1333 93.0775 19.04C92.6242 17.92 91.9842 17 91.1575 16.28C90.3308 15.56 89.3708 15.04 88.2775 14.72C87.1842 14.3733 86.0242 14.2 84.7975 14.2H79.1575V9H84.9975C87.9308 9 90.4908 9.57333 92.6775 10.72C94.8908 11.8667 96.6108 13.4933 97.8375 15.6C99.0642 17.68 99.6775 20.1467 99.6775 23C99.6775 25.8533 99.0642 28.3333 97.8375 30.44C96.6108 32.52 94.8908 34.1333 92.6775 35.28C90.4908 36.4267 87.9308 37 84.9975 37Z" fill="#786ACF"/>
<path d="M103.91 9H109.63V27.44C109.63 29.04 110.044 30.3333 110.87 31.32C111.724 32.28 112.977 32.76 114.63 32.76C116.284 32.76 117.524 32.28 118.35 31.32C119.204 30.3333 119.63 29.04 119.63 27.44V9H125.35V27.8C125.35 29.4533 125.084 30.9067 124.55 32.16C124.017 33.4133 123.257 34.4667 122.27 35.32C121.31 36.1733 120.177 36.8133 118.87 37.24C117.564 37.6933 116.15 37.92 114.63 37.92C113.084 37.92 111.657 37.6933 110.35 37.24C109.044 36.8133 107.91 36.1733 106.95 35.32C105.99 34.4667 105.244 33.4133 104.71 32.16C104.177 30.9067 103.91 29.4533 103.91 27.8V9Z" fill="#AED139"/>
<path d="M137.541 23.96H143.581L152.701 37H145.941L137.541 23.96ZM131.181 9H136.901V37H131.181V9ZM134.661 13.88V9H140.581C142.794 9 144.674 9.37333 146.221 10.12C147.767 10.8667 148.954 11.9067 149.781 13.24C150.607 14.5733 151.021 16.1333 151.021 17.92C151.021 19.68 150.607 21.24 149.781 22.6C148.954 23.9333 147.767 24.9733 146.221 25.72C144.674 26.4667 142.794 26.84 140.581 26.84H134.661V22.28H140.221C141.234 22.28 142.101 22.12 142.821 21.8C143.567 21.4533 144.141 20.9733 144.541 20.36C144.941 19.72 145.141 18.96 145.141 18.08C145.141 17.2 144.941 16.4533 144.541 15.84C144.141 15.2 143.567 14.72 142.821 14.4C142.101 14.0533 141.234 13.88 140.221 13.88H134.661Z" fill="#FBC730"/>
<path d="M159.865 30.64L160.545 26.12H173.985L174.665 30.64H159.865ZM167.185 18.08L162.985 27.72L163.105 29L159.425 37H152.985L167.185 7.36L181.385 37H174.905L171.305 29.24L171.385 27.8L167.185 18.08Z" fill="#0D5EF4"/>
<path d="M22.0012 16.5975L14.0989 13.8505C12.9592 17.0766 10.8764 21.591 7.11248 26.6529C7.11248 26.6529 15.9357 33.0402 21.7491 45.9999C21.2262 41.6572 19.9456 34.6203 16.8826 29.5284C16.9456 29.6088 18.3325 31.3077 22.0012 31.4074C25.6687 31.3065 27.0556 29.6076 27.1199 29.5284C24.0569 34.6203 22.7763 41.6572 22.2534 45.9999C28.0667 33.0402 36.89 26.6529 36.89 26.6529C33.1261 21.5898 31.0433 17.0766 29.9036 13.8505L22.0012 16.5975ZM23.6502 28.9773C23.6403 29.8586 22.9048 30.5681 22.0012 30.5753C21.0977 30.5681 20.3622 29.8598 20.3523 28.9773C20.3498 28.76 20.3918 28.5535 20.4685 28.3638L19.157 27.7959L21.9864 26.4944L22.0012 26.5004L22.0161 26.4944L24.8455 27.7959L23.534 28.3638C23.6119 28.5535 23.6527 28.76 23.6502 28.9773Z" fill="#0D5EF4"/>
<path d="M40.3486 19.1033L39.7862 9.11043L44 7.64566L22 0L0 7.64566L22 15.2925L38.9258 9.40939L38.3807 19.1033C37.5501 19.4671 36.9728 20.2788 36.9728 21.2213C36.9728 22.5047 38.0433 23.5445 39.3646 23.5445C40.686 23.5445 41.7565 22.5047 41.7565 21.2213C41.7565 20.2788 41.1792 19.4683 40.3486 19.1033Z" fill="#F20F10"/>
</svg>
